<?xml version="1.0" encoding="utf-8"?>
<!-- Generator: Adobe Illustrator 15.0.0, SVG Export Plug-In . SVG Version: 6.00 Build 0)  -->
<!DOCTYPE svg PUBLIC "-//W3C//DTD SVG 1.0//EN" "http://www.w3.org/TR/2001/REC-SVG-20010904/DTD/svg10.dtd">
<svg version="1.0" id="Layer_1" xmlns="http://www.w3.org/2000/svg" xmlns:xlink="http://www.w3.org/1999/xlink" x="0px" y="0px"
	 width="400px" height="400px" viewBox="0 0 400 400" enable-background="new 0 0 400 400" xml:space="preserve">
<g>
	<path fill-rule="evenodd" clip-rule="evenodd" fill="#92278F" d="M200.675,23c-98.979,0-179.244,80.248-179.244,179.245
		c0,79.193,51.359,146.383,122.579,170.085c8.957,1.658,12.246-3.889,12.246-8.623c0-4.272-0.164-18.396-0.243-33.372
		c-49.867,10.843-60.388-21.15-60.388-21.15c-8.154-20.715-19.902-26.226-19.902-26.226c-16.266-11.125,1.226-10.896,1.226-10.896
		c17.998,1.264,27.476,18.474,27.476,18.474c15.986,27.401,41.932,19.479,52.163,14.899c1.608-11.583,6.252-19.494,11.378-23.97
		c-39.813-4.53-81.666-19.903-81.666-88.584c0-19.568,7.003-35.559,18.47-48.111c-1.86-4.516-7.997-22.746,1.737-47.438
		c0,0,15.052-4.814,49.303,18.376c14.298-3.972,29.633-5.963,44.865-6.033c15.233,0.07,30.579,2.062,44.905,6.033
		c34.212-23.19,49.242-18.376,49.242-18.376c9.757,24.691,3.62,42.922,1.759,47.438c11.492,12.553,18.448,28.543,18.448,48.111
		c0,68.847-41.934,84.005-81.849,88.443c6.431,5.561,12.157,16.47,12.157,33.191c0,23.983-0.204,43.285-0.204,49.19
		c0,4.771,3.224,10.36,12.31,8.602c71.183-23.729,122.478-90.895,122.478-170.063C379.921,103.248,299.668,23,200.675,23z"/>
	<path fill="#92278F" d="M89.32,280.355c-0.394,0.895-1.797,1.159-3.071,0.549c-1.302-0.587-2.03-1.802-1.609-2.693
		c0.385-0.916,1.789-1.171,3.087-0.561C89.028,278.235,89.77,279.463,89.32,280.355L89.32,280.355z M87.114,278.722"/>
	<path fill="#92278F" d="M96.582,288.454c-0.855,0.792-2.527,0.424-3.661-0.827c-1.174-1.251-1.392-2.922-0.525-3.725
		c0.881-0.793,2.501-0.421,3.675,0.827C97.246,285.993,97.475,287.65,96.582,288.454L96.582,288.454z M94.872,286.619"/>
	<path fill="#92278F" d="M103.648,298.776c-1.098,0.767-2.896,0.048-4.006-1.545c-1.098-1.594-1.098-3.507,0.026-4.272
		c1.11-0.765,2.882-0.075,4.005,1.505C104.77,296.085,104.77,297.998,103.648,298.776L103.648,298.776z M103.648,298.776"/>
	<path fill="#92278F" d="M113.33,308.751c-0.982,1.084-3.076,0.791-4.605-0.686c-1.569-1.445-2.004-3.497-1.021-4.581
		c0.997-1.085,3.102-0.781,4.644,0.687C113.904,305.616,114.376,307.679,113.33,308.751L113.33,308.751z M113.33,308.751"/>
	<path fill="#92278F" d="M126.687,314.542c-0.435,1.404-2.449,2.041-4.478,1.444c-2.029-0.615-3.354-2.259-2.946-3.675
		c0.421-1.416,2.448-2.079,4.491-1.441C125.78,311.481,127.107,313.112,126.687,314.542L126.687,314.542z M126.687,314.542"/>
	<path fill="#92278F" d="M141.358,315.615c0.049,1.479-1.673,2.704-3.803,2.73c-2.142,0.05-3.878-1.147-3.902-2.604
		c0-1.491,1.685-2.704,3.827-2.74C139.61,312.96,141.358,314.148,141.358,315.615L141.358,315.615z M141.358,315.615"/>
	<path fill="#92278F" d="M155.007,313.294c0.256,1.44-1.226,2.922-3.342,3.316c-2.081,0.382-4.006-0.511-4.273-1.939
		c-0.258-1.479,1.25-2.96,3.328-3.343C152.839,310.96,154.737,311.825,155.007,313.294L155.007,313.294z M155.007,313.294"/>
</g>
</svg>
