<?xml version="1.0" encoding="utf-8"?>
<!-- Generator: Adobe Illustrator 15.0.0, SVG Export Plug-In . SVG Version: 6.00 Build 0)  -->
<!DOCTYPE svg PUBLIC "-//W3C//DTD SVG 1.1//EN" "http://www.w3.org/Graphics/SVG/1.1/DTD/svg11.dtd">
<svg version="1.1" xmlns="http://www.w3.org/2000/svg" xmlns:xlink="http://www.w3.org/1999/xlink" x="0px" y="0px" width="800px"
	 height="550px" viewBox="0 0 800 550" enable-background="new 0 0 800 550" xml:space="preserve">
<g id="Layer_3">
	
		<rect x="191" y="313" transform="matrix(0.9679 -0.2511 0.2511 0.9679 -81.0057 61.2583)" fill="#8C5B19" stroke="#4F2D05" stroke-width="4" stroke-miterlimit="10" width="17" height="70"/>
	
		<rect x="116.24" y="222.221" transform="matrix(0.9726 -0.2323 0.2323 0.9726 -57.9534 49.3124)" fill="#FFFFFF" stroke="#CCCCCC" stroke-width="4" stroke-miterlimit="10" width="128.291" height="96.968"/>
</g>
<g id="Layer_2">
	<path fill="#A64C9D" stroke="#660066" stroke-width="4" stroke-miterlimit="10" d="M506,352c4.5-23.5,40-40.013,40.436-88.352
		c0.339-37.634-27.816-56.012-59.799-60.434c-41.605-5.752-62.213,14.644-74.03,45.786c-8.583,22.619,6.333,76.136-9.196,94.378
		c-12.806,15.043-32.044,16.111-52.724,16.791c-17.399,0.572-57.674-5.45-66.687-40.956c-8-31.517,21-67.479,21-67.479
		S273.068,265.82,267,298c-4,21.213,5.663,37.739,10.908,46.076C286.242,357.322,301.091,370.827,320,378
		c29,11,58.97,0.463,58.97,0.463s-15.125,19.342-32.88,27.201C325,415,298.626,421.129,277.944,400.41
		c-12.957-12.979-27.139-37.948-46.444-50.91C217.352,340,185,349,185,349s28.981-4.473,44.5,9.5
		c14.796,13.322,28.603,47.69,45.5,65c20.5,21,56.5,18.5,78,7.5c23.236-11.889,43-30,43-30s-11.214,29.895-22,44
		c-13,17-26.5,25.5-54,31c-27.109,5.422-60.222-10.642-60.222-10.642s15.954,15.311,39.394,22.197
		C316,492.5,337,494,358.804,484.292C378.442,475.548,395.5,459,408,441.5c10.268-14.375,17-30.5,17-30.5s-2.782,20.918-4,33.5
		c-1.5,15.5-7.822,27.795-17.5,40.5c-6.25,8.205-20.864,19.728-39.682,24.791c-13.26,3.568-43.818,3.017-43.818,3.017
		s11.172,11.1,49.993,8.88c15.864-0.907,37.507-8.188,48.218-18.823c11.306-11.227,19.663-21.223,23.789-37.364
		c3.643-14.251,9.187-41.5,9.187-41.5s5.242,33.061,9.602,45.372c5.044,14.245,15.704,25.063,26.263,32.323
		c16.162,11.111,46.464,21.214,70.754,20.203c37.417-1.557,67.63-23.232,67.63-23.232S586.027,512.065,558,508.5
		c-33.305-4.236-49.739-17.654-57.5-25c-6.82-6.456-16.18-17.293-19.5-34.5c-1.82-9.434-2.03-22.052-2.03-22.052
		s9.873,18.67,18.53,27.552c14.009,14.372,36.575,22.813,52.5,26c20.112,4.025,54.386,7.881,75.435-7.087C645,459.5,677,461,677,461
		s-28-21-63.687-2.738c-22.081,11.3-50.563,3.252-64.313-2.262c-11.121-4.459-26.055-13.306-32.656-19.961
		c-10.117-10.199-17.172-18.182-17.172-18.182s12.273,2.195,34.343,9.756c18.519,6.344,45.507,8.161,56.485,7.887
		c16.157-0.404,40-5,51.321-11.5c26.046-14.954,42.699-58,42.699-58s-24.981,30.4-39.556,38.004
		c-16.468,8.592-31.429,10.758-53.374,10.758c-23.197,0-51.503-6.027-63.637-11.863c-20.896-10.05-23.297-9.403-23.297-9.403
		s14.928,4.366,34.408,5.17c24.29,1.002,47.32-2.196,57.576-5.05c12.76-3.551,57.346-17.368,62.358-49.115
		c4.5-28.5-25.995-63.006-25.995-63.006S648.5,312.5,645,339c-2.797,21.176-34.756,34.485-54.5,38
		c-21.897,3.897-44.292,1.202-59.5,0S502.696,369.251,506,352z"/>
	<ellipse transform="matrix(0.972 0.2349 -0.2349 0.972 75.3027 -100.2153)" cx="458.351" cy="266.01" rx="5.873" ry="15.041"/>
	<ellipse transform="matrix(0.972 0.2349 -0.2349 0.972 77.926 -108.2402)" cx="493.351" cy="273.01" rx="5.873" ry="15.041"/>
	<g>
		<path d="M444.334,304.569c2.663,3.021,5.646,5.607,8.864,7.741c3.234,2.1,6.731,3.709,10.421,4.558
			c3.705,0.863,7.549,1.163,11.414,0.917c3.864-0.262,7.747-0.95,11.604-2.12c-3.329,2.326-7.27,3.748-11.323,4.466
			c-4.063,0.705-8.323,0.647-12.391-0.354c-4.088-1.002-7.923-2.951-11.1-5.608C448.651,311.521,445.98,308.277,444.334,304.569z"/>
	</g>
	<ellipse fill="#FFFFFF" cx="460.281" cy="254.583" rx="2.737" ry="2.849"/>
	<ellipse fill="#FFFFFF" cx="495.281" cy="261.583" rx="2.737" ry="2.849"/>
	<g>
		<path d="M142.922,254.898l2.24,9.946c0.177,0.785,0.351,1.354,0.523,1.708c0.171,0.354,0.403,0.625,0.694,0.816
			c0.263,0.173,0.541,0.279,0.834,0.317c0.293,0.038,0.659,0.019,1.099-0.056l0.06,0.263l-5.271,1.187l-0.06-0.263
			c0.43-0.121,0.769-0.262,1.017-0.421c0.248-0.16,0.454-0.375,0.617-0.645c0.182-0.297,0.273-0.644,0.276-1.041
			c0.003-0.397-0.083-0.984-0.259-1.761l-1.9-8.437c-0.174-0.77-0.347-1.333-0.519-1.691c-0.174-0.357-0.405-0.631-0.697-0.822
			c-0.255-0.175-0.529-0.281-0.822-0.319s-0.663-0.019-1.109,0.058l-0.06-0.263l4.401-0.992l11.951,9.753l-1.859-8.255
			c-0.177-0.784-0.352-1.354-0.523-1.708c-0.172-0.354-0.403-0.626-0.694-0.817c-0.263-0.173-0.541-0.278-0.834-0.316
			s-0.659-0.02-1.099,0.055l-0.06-0.263l5.271-1.187l0.059,0.263c-0.762,0.171-1.307,0.526-1.633,1.064
			c-0.182,0.297-0.274,0.645-0.276,1.041c-0.003,0.397,0.083,0.98,0.256,1.75l2.71,12.027l-0.515,0.116L142.922,254.898z"/>
		<path d="M158.526,255.647l3.2-1.153l1.483,6.584l0.206,0.864c0.116,0.516,0.231,0.888,0.347,1.113
			c0.115,0.226,0.277,0.398,0.489,0.519c0.26,0.157,0.687,0.224,1.283,0.202l0.054,0.24l-5.053,1.138l-0.055-0.24
			c0.443-0.164,0.752-0.323,0.926-0.477c0.173-0.155,0.291-0.379,0.354-0.672c0.044-0.193,0.044-0.47-0.001-0.83
			c-0.046-0.361-0.144-0.875-0.294-1.542l-0.633-2.81c-0.176-0.781-0.318-1.324-0.428-1.631c-0.108-0.306-0.25-0.542-0.424-0.71
			c-0.178-0.183-0.368-0.301-0.572-0.355c-0.204-0.053-0.48-0.053-0.829,0.001L158.526,255.647z M159.893,250.595
			c-0.299,0.067-0.567,0.028-0.807-0.118c-0.238-0.147-0.39-0.365-0.455-0.654c-0.063-0.282-0.018-0.543,0.138-0.782
			c0.156-0.239,0.379-0.392,0.671-0.457c0.291-0.066,0.558-0.024,0.802,0.125c0.242,0.149,0.396,0.365,0.459,0.647
			c0.065,0.29,0.021,0.551-0.131,0.786S160.191,250.528,159.893,250.595z"/>
		<path d="M174.271,259.789l0.246,0.028c-0.084,0.868-0.36,1.543-0.828,2.025c-0.469,0.481-1.183,0.831-2.144,1.047
			c-1.539,0.347-2.851,0.162-3.933-0.556c-1.057-0.707-1.738-1.747-2.048-3.119c-0.151-0.67-0.183-1.36-0.094-2.069
			c0.089-0.708,0.286-1.341,0.593-1.899c0.345-0.639,0.823-1.175,1.434-1.608c0.611-0.434,1.317-0.741,2.117-0.922
			c1.105-0.249,2.026-0.195,2.763,0.159c0.449,0.219,0.716,0.511,0.798,0.877c0.055,0.244,0.021,0.466-0.103,0.666
			c-0.122,0.2-0.299,0.326-0.527,0.377c-0.495,0.112-0.942-0.167-1.342-0.838c-0.183-0.312-0.319-0.521-0.411-0.628
			c-0.093-0.107-0.21-0.193-0.352-0.257c-0.275-0.123-0.584-0.145-0.926-0.068c-0.448,0.101-0.835,0.32-1.158,0.657
			c-0.284,0.297-0.506,0.636-0.663,1.02s-0.266,0.847-0.328,1.389c-0.093,0.83-0.056,1.615,0.111,2.354
			c0.152,0.678,0.424,1.314,0.813,1.907c0.39,0.593,0.843,1.06,1.359,1.4c0.809,0.539,1.654,0.708,2.537,0.51
			c0.729-0.165,1.282-0.533,1.657-1.107C174.03,260.836,174.173,260.387,174.271,259.789z"/>
		<path d="M176.969,254.916c0.054,0.381,0.1,0.655,0.138,0.822c0.148,0.663,0.392,1.289,0.728,1.878s0.719,1.056,1.147,1.399
			c0.438,0.35,0.938,0.59,1.497,0.72c0.561,0.13,1.117,0.133,1.672,0.008c0.41-0.093,0.784-0.249,1.121-0.469
			c0.338-0.22,0.601-0.48,0.789-0.778c0.213-0.328,0.352-0.808,0.417-1.439l0.259,0.026c0.003,0.936-0.271,1.705-0.82,2.305
			c-0.549,0.601-1.365,1.022-2.447,1.266c-0.938,0.211-1.775,0.244-2.513,0.098c-0.738-0.146-1.408-0.476-2.013-0.988
			c-0.842-0.715-1.404-1.701-1.688-2.959c-0.387-1.715-0.076-3.198,0.932-4.45c0.731-0.91,1.67-1.494,2.813-1.751
			c0.61-0.138,1.198-0.156,1.766-0.055c0.566,0.1,1.076,0.316,1.527,0.647c0.7,0.515,1.159,1.252,1.375,2.213L176.969,254.916z
			 M181.853,253.348c-0.225-0.75-0.497-1.306-0.817-1.666c-0.289-0.327-0.629-0.562-1.02-0.701c-0.39-0.141-0.778-0.167-1.165-0.08
			c-0.652,0.147-1.16,0.558-1.522,1.232s-0.493,1.449-0.392,2.323L181.853,253.348z"/>
		<path d="M193.123,247.601l2.904-0.654l0.098,0.435l-2.904,0.654l1.499,6.654c0.181,0.8,0.446,1.341,0.797,1.623
			c0.187,0.158,0.411,0.264,0.67,0.317c0.26,0.053,0.526,0.049,0.8-0.012c0.342-0.077,0.61-0.211,0.808-0.404
			c0.195-0.192,0.389-0.506,0.577-0.941l0.205,0.11c-0.148,0.514-0.425,0.932-0.829,1.256c-0.403,0.323-0.944,0.561-1.622,0.714
			c-0.899,0.203-1.595,0.175-2.085-0.083c-0.263-0.133-0.457-0.319-0.582-0.56c-0.127-0.24-0.265-0.691-0.414-1.354l-1.561-6.928
			l-1.224,0.275l-0.041-0.183c0.46-0.271,0.848-0.684,1.164-1.235c0.189-0.339,0.33-0.665,0.421-0.978
			c0.09-0.313,0.155-0.706,0.193-1.179l0.03-0.403l0.426-0.096L193.123,247.601z"/>
		<path d="M197.724,251.706c-0.278-1.234-0.068-2.439,0.628-3.613c0.849-1.424,2.046-2.311,3.593-2.66
			c1.548-0.349,3.006-0.06,4.375,0.865c1.135,0.77,1.841,1.771,2.119,3.006c0.274,1.22,0.085,2.403-0.569,3.552
			c-0.803,1.414-2.02,2.305-3.65,2.672c-1.631,0.368-3.116,0.085-4.455-0.846c-0.522-0.363-0.959-0.801-1.312-1.314
			C198.101,252.854,197.857,252.3,197.724,251.706z M199.775,251.105c0.298,1.325,0.848,2.38,1.65,3.168
			c0.901,0.876,1.837,1.206,2.805,0.987c0.411-0.092,0.786-0.297,1.124-0.612c0.337-0.317,0.6-0.712,0.789-1.186
			c0.201-0.494,0.321-1.083,0.359-1.767s-0.012-1.328-0.146-1.929c-0.141-0.624-0.38-1.231-0.718-1.824
			c-0.337-0.591-0.721-1.079-1.152-1.462c-0.817-0.719-1.681-0.977-2.588-0.772c-0.861,0.194-1.502,0.815-1.923,1.861
			C199.546,248.617,199.48,249.796,199.775,251.105z"/>
		<path d="M138.245,289.307c0.258,0.502,0.465,1.012,0.622,1.529c0.365-0.619,0.815-1.133,1.353-1.542
			c0.536-0.409,1.129-0.687,1.776-0.833c0.717-0.161,1.356-0.113,1.918,0.145c0.34,0.156,0.758,0.466,1.255,0.931
			c0.447-0.718,0.934-1.279,1.458-1.687c0.525-0.406,1.127-0.686,1.806-0.839c0.914-0.206,1.716-0.124,2.403,0.245
			c0.688,0.369,1.122,0.957,1.305,1.764l0.872,3.871l0.206,0.865c0.117,0.517,0.233,0.89,0.348,1.115
			c0.115,0.226,0.274,0.4,0.479,0.522c0.268,0.155,0.698,0.222,1.294,0.2l0.055,0.239l-5.054,1.139l-0.054-0.239
			c0.443-0.164,0.75-0.324,0.919-0.479c0.17-0.152,0.29-0.378,0.359-0.674c0.044-0.194,0.044-0.472-0.002-0.834
			c-0.046-0.361-0.143-0.873-0.292-1.535l-0.491-2.181c-0.19-0.846-0.355-1.456-0.497-1.833c-0.141-0.375-0.317-0.684-0.531-0.923
			c-0.503-0.566-1.192-0.751-2.066-0.554c-0.942,0.212-1.548,0.717-1.816,1.513c-0.236,0.685-0.212,1.663,0.074,2.935l0.496,2.203
			l0.207,0.865c0.117,0.518,0.232,0.89,0.348,1.115c0.115,0.227,0.274,0.4,0.478,0.523c0.261,0.156,0.691,0.223,1.295,0.199
			l0.054,0.24l-5.053,1.139l-0.054-0.24c0.443-0.164,0.75-0.323,0.919-0.478c0.17-0.153,0.289-0.378,0.359-0.675
			c0.044-0.193,0.043-0.471-0.002-0.833c-0.045-0.361-0.143-0.874-0.292-1.536l-0.476-2.112c-0.201-0.891-0.377-1.536-0.527-1.938
			s-0.334-0.715-0.553-0.938c-0.229-0.236-0.513-0.397-0.853-0.485c-0.339-0.088-0.699-0.089-1.079-0.003
			c-0.434,0.098-0.817,0.292-1.15,0.584c-0.335,0.289-0.572,0.636-0.714,1.036c-0.135,0.357-0.196,0.767-0.186,1.224
			c0.012,0.456,0.095,1.032,0.251,1.725l0.471,2.09l0.202,0.842c0.116,0.518,0.232,0.89,0.347,1.115
			c0.115,0.227,0.278,0.399,0.49,0.521c0.26,0.156,0.688,0.224,1.282,0.202l0.055,0.24l-5.053,1.139l-0.055-0.24
			c0.443-0.164,0.752-0.324,0.926-0.479c0.173-0.154,0.291-0.379,0.353-0.672c0.045-0.193,0.044-0.473-0.002-0.833
			c-0.045-0.361-0.143-0.876-0.293-1.546l-0.635-2.816c-0.177-0.783-0.319-1.328-0.429-1.635s-0.251-0.544-0.425-0.713
			c-0.178-0.184-0.369-0.303-0.572-0.355c-0.205-0.055-0.48-0.054-0.829,0l-0.055-0.24L138.245,289.307z"/>
		<path d="M156.953,288.947c0.054,0.38,0.099,0.654,0.137,0.822c0.149,0.663,0.392,1.289,0.729,1.878
			c0.336,0.589,0.719,1.056,1.147,1.399c0.438,0.35,0.938,0.59,1.497,0.72c0.561,0.13,1.117,0.133,1.672,0.008
			c0.41-0.093,0.784-0.249,1.121-0.47c0.337-0.22,0.6-0.479,0.789-0.777c0.213-0.329,0.353-0.809,0.418-1.44l0.258,0.026
			c0.003,0.937-0.271,1.705-0.82,2.305c-0.55,0.601-1.365,1.023-2.447,1.267c-0.938,0.211-1.775,0.243-2.513,0.098
			c-0.737-0.146-1.408-0.476-2.013-0.988c-0.842-0.716-1.404-1.702-1.688-2.96c-0.386-1.715-0.075-3.197,0.932-4.449
			c0.732-0.91,1.67-1.494,2.813-1.751c0.609-0.138,1.198-0.156,1.765-0.056c0.568,0.101,1.077,0.316,1.527,0.647
			c0.701,0.515,1.159,1.252,1.376,2.212L156.953,288.947z M161.837,287.379c-0.225-0.75-0.497-1.306-0.817-1.666
			c-0.289-0.328-0.629-0.562-1.019-0.701c-0.392-0.141-0.779-0.167-1.167-0.08c-0.652,0.146-1.159,0.558-1.521,1.232
			c-0.362,0.674-0.493,1.447-0.392,2.322L161.837,287.379z"/>
		<path d="M167.505,286.57c0.054,0.38,0.1,0.654,0.138,0.822c0.149,0.662,0.392,1.289,0.728,1.877
			c0.336,0.59,0.719,1.057,1.147,1.399c0.438,0.351,0.938,0.59,1.497,0.72c0.561,0.131,1.117,0.133,1.672,0.008
			c0.41-0.092,0.784-0.248,1.121-0.469c0.338-0.221,0.601-0.479,0.789-0.777c0.213-0.329,0.353-0.809,0.418-1.44l0.258,0.026
			c0.003,0.937-0.271,1.705-0.82,2.305c-0.549,0.6-1.365,1.022-2.447,1.266c-0.938,0.212-1.775,0.244-2.513,0.098
			c-0.737-0.146-1.408-0.475-2.013-0.988c-0.842-0.715-1.404-1.701-1.688-2.959c-0.387-1.715-0.076-3.198,0.932-4.45
			c0.732-0.909,1.669-1.493,2.813-1.751c0.609-0.137,1.198-0.155,1.766-0.055c0.566,0.1,1.076,0.316,1.527,0.646
			c0.7,0.516,1.158,1.253,1.375,2.213L167.505,286.57z M172.389,285.002c-0.225-0.751-0.497-1.307-0.817-1.666
			c-0.289-0.328-0.629-0.562-1.02-0.702c-0.39-0.14-0.778-0.167-1.166-0.079c-0.651,0.146-1.159,0.558-1.521,1.231
			c-0.362,0.675-0.493,1.448-0.392,2.323L172.389,285.002z"/>
		<path d="M177.806,280.573l2.904-0.654l0.098,0.435l-2.904,0.654l1.5,6.653c0.18,0.8,0.445,1.341,0.796,1.622
			c0.188,0.158,0.411,0.265,0.671,0.318c0.26,0.053,0.525,0.049,0.799-0.012c0.342-0.078,0.611-0.212,0.808-0.404
			c0.196-0.193,0.389-0.506,0.578-0.941l0.204,0.11c-0.148,0.514-0.425,0.933-0.828,1.256s-0.944,0.562-1.623,0.714
			c-0.899,0.203-1.594,0.175-2.085-0.083c-0.262-0.134-0.456-0.319-0.582-0.56s-0.265-0.691-0.414-1.354l-1.561-6.928l-1.224,0.275
			l-0.041-0.183c0.46-0.271,0.848-0.684,1.165-1.235c0.189-0.339,0.329-0.665,0.42-0.978s0.155-0.706,0.194-1.18l0.03-0.402
			l0.426-0.096L177.806,280.573z"/>
		<path d="M186.426,278.631l4.436-0.999l0.057,0.251c-0.302,0.117-0.513,0.229-0.633,0.336c-0.26,0.233-0.351,0.525-0.271,0.877
			c0.068,0.303,0.347,0.813,0.835,1.526l3.014,4.466l0.741-4.496c0.181-1.121,0.222-1.894,0.126-2.32
			c-0.077-0.342-0.233-0.592-0.47-0.752c-0.235-0.157-0.542-0.219-0.918-0.182l-0.057-0.252l3.27-0.736l0.057,0.251
			c-0.307,0.166-0.527,0.315-0.661,0.45c-0.134,0.134-0.249,0.324-0.347,0.57c-0.145,0.385-0.327,1.215-0.544,2.488l-1.502,8.796
			c-0.18,1.05-0.359,1.746-0.538,2.091c-0.304,0.573-0.771,0.931-1.404,1.073c-0.403,0.091-0.747,0.087-1.03-0.014
			c-0.282-0.101-0.452-0.276-0.509-0.528c-0.045-0.198-0.008-0.373,0.109-0.523c0.118-0.15,0.294-0.252,0.53-0.305
			c0.197-0.045,0.438-0.043,0.72,0.005c0.273,0.043,0.448,0.067,0.526,0.074c0.077,0.007,0.165-0.001,0.264-0.023
			c0.472-0.106,0.775-0.548,0.911-1.327l0.157-0.951c0.068-0.402,0.081-0.703,0.036-0.902c-0.063-0.28-0.318-0.739-0.765-1.375
			l-3.653-5.164l-0.527-0.745c-0.315-0.441-0.553-0.751-0.714-0.931c-0.16-0.18-0.308-0.303-0.443-0.368
			c-0.223-0.103-0.472-0.138-0.745-0.108L186.426,278.631z"/>
		<path d="M198.046,281.154c-0.278-1.234-0.069-2.438,0.627-3.612c0.849-1.425,2.047-2.311,3.594-2.66s3.006-0.06,4.375,0.865
			c1.135,0.77,1.841,1.771,2.119,3.006c0.274,1.22,0.085,2.403-0.569,3.552c-0.803,1.414-2.02,2.305-3.65,2.672
			c-1.631,0.368-3.116,0.086-4.455-0.846c-0.522-0.363-0.959-0.801-1.312-1.314C198.423,282.303,198.18,281.75,198.046,281.154z
			 M200.097,280.555c0.299,1.325,0.849,2.381,1.65,3.168c0.903,0.877,1.838,1.205,2.806,0.987c0.412-0.093,0.786-0.297,1.123-0.612
			c0.337-0.316,0.601-0.712,0.79-1.186c0.201-0.494,0.321-1.083,0.359-1.768c0.037-0.684-0.011-1.327-0.146-1.929
			c-0.141-0.624-0.38-1.231-0.718-1.824c-0.337-0.592-0.722-1.079-1.152-1.462c-0.818-0.72-1.682-0.977-2.588-0.772
			c-0.861,0.194-1.503,0.814-1.924,1.86C199.869,278.066,199.802,279.246,200.097,280.555z"/>
		<path d="M219.14,281.688c-0.203-0.441-0.36-0.905-0.47-1.393c-0.738,1.166-1.759,1.896-3.063,2.189
			c-0.953,0.215-1.771,0.154-2.455-0.18c-0.667-0.33-1.095-0.913-1.283-1.75l-0.896-3.975l-0.207-0.865
			c-0.116-0.518-0.231-0.887-0.346-1.109s-0.274-0.399-0.479-0.529c-0.268-0.155-0.698-0.218-1.292-0.188l-0.057-0.251l3.361-0.757
			l1.306,5.796c0.184,0.816,0.349,1.414,0.494,1.793c0.146,0.38,0.322,0.678,0.531,0.896c0.226,0.222,0.511,0.371,0.856,0.45
			c0.345,0.078,0.711,0.073,1.099-0.014c0.426-0.096,0.807-0.27,1.142-0.521c0.334-0.25,0.576-0.545,0.724-0.883
			c0.153-0.346,0.223-0.723,0.208-1.126c-0.016-0.405-0.124-1.052-0.324-1.942l-0.504-2.239l-0.202-0.842
			c-0.116-0.518-0.23-0.888-0.341-1.11c-0.11-0.224-0.271-0.399-0.484-0.527c-0.26-0.157-0.69-0.22-1.292-0.189l-0.057-0.251
			l3.361-0.757l1.396,6.2c0.177,0.784,0.321,1.329,0.435,1.636c0.113,0.306,0.253,0.545,0.42,0.715
			c0.185,0.184,0.38,0.301,0.584,0.354s0.48,0.054,0.829-0.001l0.054,0.24L219.14,281.688z"/>
		<path d="M224.711,276.024l-0.206,0.046l-3-8.306c-0.25-0.68-0.418-1.212-0.504-1.593c-0.113-0.504-0.076-0.925,0.112-1.264
			c0.188-0.34,0.503-0.559,0.945-0.658c0.419-0.094,0.783-0.032,1.093,0.187c0.31,0.219,0.519,0.568,0.626,1.049
			c0.076,0.336,0.14,0.832,0.19,1.485L224.711,276.024z M224.904,277.47c0.382-0.085,0.737-0.023,1.069,0.187
			c0.331,0.209,0.541,0.508,0.629,0.896c0.085,0.381,0.023,0.738-0.186,1.069c-0.21,0.332-0.505,0.54-0.887,0.626
			c-0.381,0.086-0.737,0.024-1.068-0.186c-0.332-0.209-0.541-0.505-0.627-0.886c-0.087-0.389-0.026-0.749,0.184-1.08
			C224.228,277.766,224.523,277.556,224.904,277.47z"/>
	</g>
</g>
<g id="Layer_4">
	<path opacity="0.25" fill="#FFFFFF" d="M419.875,249.316c0,0,1.402-7.216,5.611-14.23c2.88-4.799,6.485-10.765,11.224-15.232
		c5.284-4.982,11.773-8.241,16.945-10.021c15.724-5.411,33.441-1.007,33.441-1.007s-22.601,3.335-35.756,11.229
		C431.299,232.08,419.875,249.316,419.875,249.316z"/>
</g>
<g id="Layer_5">
	<polygon fill="#333333" stroke="#000000" stroke-miterlimit="10" points="545.359,226.961 560.225,204.422 515.146,174.691 
		500.281,197.229 492.768,192.274 487.262,200.622 494.775,205.578 539.854,235.309 547.366,240.265 552.872,231.917 	"/>
	
		<line fill="none" stroke="#A64C9D" stroke-width="2" stroke-miterlimit="10" x1="545.359" y1="225.961" x2="501.124" y2="196.785"/>
	
		<rect x="511" y="179" transform="matrix(0.819 0.5738 -0.5738 0.819 200.8435 -260.6337)" opacity="0.25" fill="#FFFFFF" width="5" height="18"/>
</g>
<g id="Layer_6">
	<path opacity="0.25" d="M554.082,200.372l6.143,4.051l-14.865,21.539l7.513,5.956l-5.506,8.348l-18.252-12.039
		c0,0,7.887-2.265,12.554-7.908C545.501,215.684,554.082,200.372,554.082,200.372z"/>
</g>
<g id="Layer_8">
	<path opacity="0.25" d="M544.67,238.486c0,0,4.222,18.033,2.939,30.064c-2.25,21.117-5.942,31.783-16.942,47.783
		c-10.33,15.025-20.23,23.482-22.334,34.333c-2.219,11.446,1,18.333,6.035,20.14c11.826,4.243,9.375,3.577,23.299,4.86
		c13.941,1.285,36,1.666,36,1.666s-23.735,2.29-40.334,3.334c-15.743,0.99-32.579-4.001-35.315-15.334
		c-3.364-13.934,1.549-27.631,11.982-41.666c10.839-14.58,23-27.666,27.205-48.742c3.728-18.685-13.462-50.24-13.462-50.24"/>
</g>
<g id="Layer_9">
	<g>
		<path fill="#990099" d="M148.102,115.775c0-14.351,8.4-29.576,20.475-43.401c-8.05,1.75-16.625,3.15-25.9,4.725
			c-1.05,0.175-1.925,0.35-2.975,0.525c-10.15,13.3-20.65,26.775-29.925,35.875c-14.7,14.525-33.426,24.15-52.676,24.15
			c-14.175,0-18.9-7.875-18.9-14.7c0-17.15,22.4-33.25,88.551-45.676c9.1-11.2,18.375-22.75,26.425-30.8
			c3.675-3.675,7.35-6.825,10.675-9.625c-15.4,8.4-31.851,20.826-36.4,20.826c-1.05,0-1.75-0.525-2.45-1.225
			c-1.4-1.4-2.1-4.55-2.1-6.475c0-9.625,21.875-20.125,21.525-24.675c-0.175-0.35-0.875-0.7-1.925-0.7
			c-7.7,0-29.226,16.1-45.326,35.701c-0.35-0.35-0.525-0.525-0.525-0.875c0-1.05,1.75-3.15,3.325-5.075
			c13.475-15.925,33.25-31.5,42.351-31.5c2.8,0,5.95,2.275,5.95,6.475c0,6.825-21.175,21.175-20.825,25.9
			c5.775,0,43.051-28.875,59.151-28.875c2.625,0,3.15,1.05,2.8,2.1c-4.375,0-10.85,2.8-19.95,12.075
			c-7.175,7.175-16.975,20.3-27.65,34.125c0.875,0,1.75-0.175,2.625-0.35c9.625-1.575,18.55-3.15,26.951-5.075
			c22.225-23.976,54.601-42.876,70.001-42.876c5.25,0,7.875,2.45,7.875,6.65c0,12.601-20.65,25.201-64.226,35.701
			c-17.5,16.101-32.025,34.651-32.025,49.876c0,13.125,7,14.875,10.15,14.875c12.25,0,34.65-24.15,34.65-38.151
			c0-4.2-0.7-6.125-4.2-6.125c-5.775,0-21,13.65-26.775,28.175c-0.525-0.175-1.05-0.525-1.05-1.225
			c0-7.175,16.625-29.05,27.825-29.05c4.2,0,8.05,3.15,8.05,9.625c0,15.75-21.7,40.951-37.101,40.951
			C156.152,137.65,148.102,132.05,148.102,115.775z M101.726,107.024c6.65-6.65,14.525-16.45,22.75-26.6
			C63.4,92.324,41,108.6,41,122.95c0,3.15,0.875,9.45,12.6,9.45C67.775,132.4,83.876,125.05,101.726,107.024z M189.228,65.024
			c37.801-10.15,57.226-22.226,57.226-32.026c0-1.75-0.875-3.675-2.45-3.675C238.229,29.323,211.978,44.898,189.228,65.024z"/>
		<path fill="#990099" d="M211.624,131c-5.775,0-8.925-2.625-8.925-10.325c0-14.525,22.051-38.5,36.926-38.851
			c4.9,1.75,7,3.15,7,6.825c0,2.975-2.975,6.475-6.125,9.625c-5.6,5.6-14.525,9.975-20.475,9.975c-1.225,0-2.1,0-2.8-0.175
			c-5.075,6.825-8.925,13.825-9.275,18.9c0.35,0.525,1.225,1.05,3.325,1.05c7.875,0,23.101-8.05,33.076-18.025
			c2.8-2.8,5.075-5.25,6.65-7.35c0.35,0.175,0.525,0.525,0.525,0.875c0,1.225-3.15,5.075-7.875,9.8
			C233.849,123.125,218.449,131,211.624,131z M238.224,97.049c3.5-3.5,5.775-6.65,5.775-8.4c0-1.575-0.175-2.275-0.525-2.625
			c-5.95,0.525-16.625,9.8-24.675,20.125h1.4C224.749,106.149,233.324,101.95,238.224,97.049z"/>
		<path fill="#990099" d="M255.371,96.699c26.25-33.425,48.126-63.526,48.126-70.351c3.675,1.4,5.074,4.55,5.074,6.65
			c0,9.8-20.65,33.776-46.726,69.126C250.821,117,246.621,125.05,246.796,128.2c9.275,0,27.65-17.15,34.125-25.375
			c0.35,0.175,0.525,0.525,0.525,0.875c0,3.5-24.5,27.3-34.301,27.3c-1.225,0-2.625-0.525-3.85-1.75
			c-1.925-1.925-2.625-4.375-2.625-7C240.67,116.475,245.746,108.95,255.371,96.699z"/>
		<path fill="#990099" d="M285.644,96.699c26.25-33.425,48.126-63.526,48.126-70.351c3.675,1.4,5.074,4.55,5.074,6.65
			c0,9.8-20.65,33.776-46.726,69.126C281.094,117,276.894,125.05,277.069,128.2c9.275,0,27.65-17.15,34.125-25.375
			c0.351,0.175,0.525,0.525,0.525,0.875c0,3.5-24.5,27.3-34.301,27.3c-1.225,0-2.625-0.525-3.85-1.75
			c-1.925-1.925-2.625-4.375-2.625-7C270.944,116.475,276.019,108.95,285.644,96.699z"/>
		<path fill="#990099" d="M344.792,89.174c0,7.7-7.525,19.95-16.275,28.701c-7.524,7.525-15.4,13.125-19.95,13.125
			c-3.675,0-6.825-4.025-6.825-10.15c0-13.825,20.301-38.675,35.176-39.025C343.217,84.274,344.792,86.724,344.792,89.174z
			 M342.167,89.174c0-1.575-0.35-2.45-1.05-3.15c-9.976,1.225-33.251,29.225-34.126,40.775c0.351,0.7,0.875,1.05,1.75,1.05
			c4.375,0,11.025-5.075,17.851-11.9C334.642,107.899,342.167,95.824,342.167,89.174z"/>
		<path fill="#990099" d="M346.715,120.15c2.45,0,3.675,1.925,3.675,4.725c0,9.45-11.9,15.575-17.325,15.575
			c-1.4,0-2.275-0.875-2.275-2.1c0,0,0.351,0.175,0.875,0.175c3.676,0,9.976-3.15,9.976-7c0-1.75-1.4-2.1-1.4-4.2
			C340.239,124.35,343.564,120.15,346.715,120.15z"/>
		<path fill="#990099" d="M461.86,136.425c0-2.45,4.025-6.3,27.65-45.501C457.136,117.7,425.46,137.65,419.51,137.65
			c-1.225,0-1.575-0.525-1.575-1.225c0-2.975,5.775-8.05,45.151-74.727c7.35-12.425,15.925-25.2,23.625-31.326
			c-12.075,5.075-36.751,27.301-42.876,27.301c-1.05,0-1.75-0.525-2.45-1.225c-1.399-1.4-2.1-4.55-2.1-6.475
			c0-9.625,21.875-20.125,21.525-24.675c-0.175,0-0.875-0.7-1.925-0.7c-7.7,0-29.226,16.1-45.326,35.701
			c-0.35-0.35-0.524-0.525-0.524-0.875c0-1.05,1.75-3.15,3.324-5.075c13.476-15.925,33.251-31.5,42.352-31.5
			c2.8,0,5.774,2.275,5.949,6.475c-0.175,6.825-21.175,21.175-20.825,25.9c5.775,0,39.026-28.875,48.651-28.875
			c1.225,0,1.75,0.525,1.925,1.4c-1.225,0.875-2.625,1.925-4.726,4.025c-5.425,5.425-13.475,17.85-19.6,32.9
			c-13.65,34.301-26.601,54.076-38.326,64.226c15.4-9.275,39.201-25.375,61.602-44.276c4.024-6.65,8.575-14.35,13.65-22.925
			c7.875-13.3,17.15-26.95,25.2-32.55c2.1-1.575,4.2-2.8,6.475-2.8c2.625,0,5.075,1.4,5.075,5.075c0,7.525-10.675,19.25-20.825,29.4
			c-3.85,3.85-8.05,7.875-12.075,11.55c-12.601,29.576-24.325,47.076-35.001,56.526c18.376-11.55,36.401-27.125,64.227-54.951
			c35.876-35.876,57.926-47.601,78.052-47.601c6.125,0,14.35,2.275,18.55,6.475c0.525,0.525,0.7,0.875,0.7,1.4
			c0,0.35-0.175,0.7-0.525,0.875c-6.3-4.2-11.55-5.075-18.725-5.075c-29.751,0-67.901,37.451-78.227,47.775
			c-52.501,52.501-74.377,59.851-76.477,59.851C462.211,137.65,461.86,137.125,461.86,136.425z M513.137,66.774
			c16.45-15.575,28.175-28.875,28.175-35.351c0-2.1-0.875-2.975-2.625-2.975c-1.05,0-2.274,0.875-3.324,1.75
			c-5.075,3.85-14.525,17.5-21.351,34.476C514.012,64.674,514.012,64.674,513.137,66.774z"/>
		<path fill="#990099" d="M573.508,89.174c0,7.7-7.525,19.95-16.275,28.701c-7.524,7.525-15.4,13.125-19.95,13.125
			c-3.675,0-6.825-4.025-6.825-10.15c0-13.825,20.301-38.675,35.176-39.025C571.933,84.274,573.508,86.724,573.508,89.174z
			 M570.883,89.174c0-1.575-0.35-2.45-1.05-3.15c-9.976,1.225-33.251,29.225-34.126,40.775c0.351,0.7,0.875,1.05,1.75,1.05
			c4.375,0,11.025-5.075,17.851-11.9C563.357,107.899,570.883,95.824,570.883,89.174z"/>
		<path fill="#990099" d="M564.755,124.175c0-4.9,21.525-30.451,24.501-39.375c4.024,1.575,4.2,4.375,4.2,6.65
			c0,2.625-3.851,9.275-9.101,16.625l0.175,0.875c7.525-9.45,16.101-19.425,18.551-21.875c2.625-2.625,5.425-5.075,7.7-5.075
			c2.8,0,3.675,1.925,3.675,5.425c0,2.625-1.925,6.475-6.125,8.75c-1.4-1.05-2.275-2.625-2.275-4.025c0.7-2.8,3.15-5.075,4.9-6.125
			c-0.175-1.05-0.35-1.4-0.875-1.4c-0.7,0-2.8,1.575-5.601,4.375c-7.175,7.175-25.725,30.276-35,42.176
			C566.505,131.175,564.755,127.85,564.755,124.175z"/>
		<path fill="#990099" d="M616.378,96.699c26.25-33.425,48.126-63.526,48.126-70.351c3.675,1.4,5.074,4.55,5.074,6.65
			c0,9.8-20.65,33.776-46.726,69.126C611.827,117,607.628,125.05,607.803,128.2c9.275,0,27.65-17.15,34.125-25.375
			c0.351,0.175,0.525,0.525,0.525,0.875c0,3.5-24.5,27.3-34.301,27.3c-1.225,0-2.625-0.525-3.85-1.75
			c-1.926-1.925-2.625-4.375-2.625-7C601.678,116.475,606.753,108.95,616.378,96.699z"/>
		<path fill="#990099" d="M662.576,129.25c-1.575-1.575-2.45-3.85-2.45-5.95c0-2.625,0.7-5.25,2.45-8.575l-0.7,0.7
			c-8.05,8.05-18.9,15.575-22.575,15.575c-4.375,0-7.35-3.85-7.35-9.625c0-13.476,25.725-38.851,40.075-39.201
			c5.95,2.275,7.525,4.9,7.525,7c0,0.525,0,1.05-0.175,1.575c15.4-20.125,40.075-51.276,40.075-57.401
			c3.851,1.4,5.075,4.55,5.075,6.65c0,7.875-33.075,47.25-43.575,61.951c-12.251,16.975-15.226,22.05-14.525,26.25
			c8.399,0,26.775-17.15,33.25-25.375c0.351,0.175,0.525,0.525,0.525,0.875c0,3.5-24.501,27.3-33.426,27.3
			C665.201,131,663.802,130.475,662.576,129.25z M660.126,113.5c3.676-3.675,7.176-7,10.501-11.025l0.35-0.525
			c0.7-0.875,1.4-1.75,2.1-2.8c2.275-3.15,3.851-6.65,3.851-9.975c0-1.4-0.175-1.925-0.7-2.8c-8.75,1.4-38.15,28.526-39.376,40.426
			c0.351,0.875,1.051,1.225,2.101,1.225C642.276,128.025,652.426,121.2,660.126,113.5z"/>
		<path fill="#990099" d="M704.051,124c0,3.15-3.501,7-6.476,7c-2.45,0-3.5-1.225-3.5-3.85c0-2.975,3.5-7,6.3-7
			C702.825,120.15,704.051,121.375,704.051,124z M708.075,114.025c-0.35,0-0.7-0.175-0.7-0.7c0-1.4,28.351-39.026,39.551-55.826
			c2.976-4.375,4.375-5.775,5.95-5.775c2.8,0,4.9,2.625,4.9,4.375c0,3.15-0.875,5.25-7.351,12.075
			C713.15,108.075,709.825,114.025,708.075,114.025z"/>
	</g>
</g>
</svg>
