<?xml version="1.0" encoding="utf-8"?>
<!-- Generator: Adobe Illustrator 15.0.0, SVG Export Plug-In . SVG Version: 6.00 Build 0)  -->
<!DOCTYPE svg PUBLIC "-//W3C//DTD SVG 1.0//EN" "http://www.w3.org/TR/2001/REC-SVG-20010904/DTD/svg10.dtd">
<svg version="1.0" id="Layer_1" xmlns="http://www.w3.org/2000/svg" xmlns:xlink="http://www.w3.org/1999/xlink" x="0px" y="0px"
	 width="400px" height="400px" viewBox="0 0 400 400" enable-background="new 0 0 400 400" xml:space="preserve">
<path fill="#92278F" d="M316.99,46H49.231c-12.802,0-23.195,10.149-23.195,22.64v268.916c0,12.514,10.394,22.674,23.195,22.674
	H316.99c12.814,0,23.275-10.16,23.275-22.674V68.64C340.265,56.149,329.804,46,316.99,46z"/>
<path fill="#FFFFFF" d="M72.602,163.813h46.627v149.955H72.602V163.813z M95.918,89.262c14.9,0,27.01,12.11,27.01,27.016
	c0,14.922-12.11,27.032-27.01,27.032c-14.939,0-27.016-12.11-27.016-27.032C68.902,101.372,80.979,89.262,95.918,89.262"/>
<path fill="#FFFFFF" d="M148.46,163.813h44.711v20.48h0.636c6.223-11.786,21.43-24.219,44.104-24.219
	c47.16,0,55.871,31.05,55.871,71.443v82.25h-46.552v-72.92c0-17.4-0.341-39.768-24.226-39.768
	c-24.253,0-27.953,18.946-27.953,38.506v74.182H148.46V163.813z"/>
<g>
	<polygon points="350.335,299.812 354.814,299.812 354.814,313.768 357.246,313.768 357.246,299.812 361.712,299.812 
		361.712,297.38 350.335,297.38 	"/>
	<polygon points="377.533,297.38 372.753,309.403 367.98,297.38 364.514,297.38 364.514,313.768 366.935,313.768 366.935,301.3 
		371.947,313.768 373.567,313.768 378.579,301.3 378.579,313.768 381,313.768 381,297.38 	"/>
</g>
</svg>
