<?xml version="1.0" encoding="utf-8"?>
<!-- Generator: Adobe Illustrator 15.0.0, SVG Export Plug-In . SVG Version: 6.00 Build 0)  -->
<!DOCTYPE svg PUBLIC "-//W3C//DTD SVG 1.1//EN" "http://www.w3.org/Graphics/SVG/1.1/DTD/svg11.dtd">
<svg version="1.1" id="Layer_1" xmlns="http://www.w3.org/2000/svg" xmlns:xlink="http://www.w3.org/1999/xlink" x="0px" y="0px"
	 width="800px" height="200px" viewBox="0 0 800 200" enable-background="new 0 0 800 200" xml:space="preserve">
<g>
	<path fill="#990099" d="M143.465,152.958c0-33.6,71.999-84.199,71.999-109.198c0-1-0.6-2.2-2.4-2.2
		c-10.8,0-36.199,29.6-65.199,59.599c1.4,3.2,2.2,7,2.2,11.2c0,10.399-3.6,16.8-6.2,21c-0.6,0-1.2-1-1.2-1.8
		c0-1.601,4.4-7.6,4.4-19.2c0-3.2-0.4-6.2-1.4-8.8c-28.799,29.6-60.999,58.999-85.398,58.999c-10.6,0-22.6-7.6-22.6-24.6
		c0-29.399,41.599-55.399,73.199-55.399c15.2,0,28.399,4.8,35,14.6c29.2-29.2,55.799-57.999,67.199-57.999c5.2,0,6.6,5,6.6,10.6
		c0,28.8-68.999,87.999-68.999,109.999c0,1.8,1,3,2.4,3c10.6,0,34-21.8,42.399-32.199c0.2,0.199,0.6,0.8,0.6,1.199
		c0,4.4-31.2,34.6-42.399,34.6C147.265,166.357,143.465,159.758,143.465,152.958z M143.865,99.159c-5.4-9.4-17.4-14-33-14
		c-27.8,0-66.799,33.999-66.799,60.399c0,6.199,4,13.199,15.2,13.199C81.466,158.758,114.066,128.959,143.865,99.159z"/>
	<path fill="#990099" d="M277.664,108.358c0,0-1.199-0.399-2.199-0.399c-5,0-15.6,7.799-28,20.199c-9.4,9.4-18.2,19.4-26.6,30.8
		c-3.4,0-5.6-3.8-5.6-7.399c0-5.601,27.4-36.2,30-45.8c0,0-1-0.4-2.2-0.4c-4.2,0-13.2,7-23.8,17.601
		c-10,9.999-20.799,22.999-30.799,35.999c-3.4,0-5.6-3.8-5.6-8c0-5.601,25.8-35.8,29.2-46.199c4.2,1.8,4.4,5,4.4,7.6
		c0,3.8-4.4,11.8-11,20.399l0.2,0.801c3.6-4.2,7.8-8.4,12-12.6c11.6-11.801,19.799-18,25.199-18c3.8,0,7.2,2,7.2,8
		s-4.2,12.6-11,21.399l0.4,0.2c2-2.2,4.4-4.2,6.6-6.4c12.8-13,22.6-20.6,29.2-20.6c3.6,0,7.199,2.6,7.199,7.8
		c0,11.601-26.399,34.2-26.199,42.199c9.6,0,30.6-19.6,37.999-28.999c0.4,0.199,0.601,0.6,0.601,1c0,4-28,31.199-38.2,31.199
		c-1.4,0-3-0.6-4.4-2c-2.2-2.199-3-5-3-8C249.264,136.559,280.464,113.559,277.664,108.358z"/>
	<path fill="#990099" d="M294.063,158.758c-6.6,0-10.2-3-10.2-11.8c0-16.6,25.2-43.999,42.199-44.399c5.601,2,8,3.6,8,7.8
		c0,3.399-3.399,7.399-7,11c-6.399,6.399-16.6,11.399-23.399,11.399c-1.399,0-2.399,0-3.2-0.199c-5.8,7.799-10.199,15.799-10.6,21.6
		c0.4,0.6,1.4,1.199,3.8,1.199c9,0,26.4-9.199,37.8-20.6c3.2-3.199,5.8-6,7.6-8.399c0.4,0.2,0.601,0.601,0.601,1
		c0,1.399-3.601,5.8-9,11.2C319.462,149.758,301.863,158.758,294.063,158.758z M324.462,119.959c4-4,6.6-7.601,6.6-9.601
		c0-1.8-0.199-2.6-0.6-3c-6.8,0.601-19,11.2-28.199,23h1.6C309.063,130.358,318.863,125.559,324.462,119.959z"/>
	<path fill="#990099" d="M344.059,119.559c30-38.2,54.999-72.599,54.999-80.399c4.2,1.6,5.801,5.2,5.801,7.6
		c0,11.2-23.6,38.599-53.4,78.998c-12.6,17-17.4,26.2-17.2,29.8c10.6,0,31.6-19.6,39-28.999c0.399,0.199,0.6,0.6,0.6,1
		c0,4-28,31.199-39.199,31.199c-1.4,0-3-0.6-4.4-2c-2.199-2.199-3-5-3-8C327.259,142.158,333.059,133.559,344.059,119.559z"/>
	<path fill="#990099" d="M406.256,126.559c0.4,0.199,0.602,0.6,0.602,1c0,4-28,31.199-38.201,31.199c-1.6,0-2.8-0.6-4.199-2
		c-1-1-3.4-5-3.4-8.199c0-11.4,12.8-22.6,27.6-44c4.6,1.8,4.6,5,4.6,7.6c0,7.6-23.999,31.199-24.999,43.399
		C377.857,155.558,398.857,135.958,406.256,126.559z M412.857,84.159c0,3.6-3.801,7.8-7.201,7.8c-2.4,0-3.799-1.6-3.799-4.2
		c0-3.4,3.799-7.8,7-7.8C411.256,79.959,412.857,81.559,412.857,84.159z"/>
	<path fill="#990099" d="M429.057,156.758c-1.801-1.8-2.602-4.4-2.602-7.6c0-1.801,0.602-4,1.801-6.4c-9,8.4-20.199,16-24.4,16
		c-5.2,0-8.199-4-8.199-12c0-14.8,27.798-43.6,44.798-43.799c7,2.6,8.6,5.6,8.6,8.199c0,0.801,0,1.801-0.199,2.801
		c2.6-3.601,4.4-6.601,4.6-8.2c4.6,1.8,4.6,5,4.6,7.6c0,6.399-25.398,32.399-24.998,42.199c9.6,0,30.598-19.6,37.998-28.999
		c0.4,0.199,0.6,0.6,0.6,1c0,4-27.998,31.199-38.199,31.199C432.057,158.758,430.455,158.158,429.057,156.758z M445.256,107.759
		c-12.4,1.399-42.799,32.199-43.799,46.199c0.398,1,1.199,1.399,2.398,1.399c3.801,0,15.4-7.799,24.201-16.6
		c3-3,6.6-7.399,10.398-12c3.801-4.6,7.6-10.399,7.6-15.6C446.055,109.358,445.855,108.759,445.256,107.759z"/>
	<path fill="#990099" d="M557.854,166.357c-15.4,0-23-10.6-23-27.399c0-6.8,1.801-13.999,5.199-21.2
		c-9-2.799-15.199-10.199-15.199-22.999c0-29.6,42.398-55.599,75.6-55.399c6-0.2,10.6,1,14.398,3.2c0,0.2-0.799,1-1.6,1.2
		c-1.4-0.2-5-2-12.799-1.8c-29.201-0.2-71.199,29-71.199,57.599c0,6,3.799,13.199,11.799,16
		c19.201-38.399,77.199-76.399,104.199-76.399c7,0,11,2.8,11,10v1c4.799,2.6,6.6,8.6,6.6,14.6c0,19.2-15,39.799-37.4,62.2
		C602.053,150.357,573.053,166.357,557.854,166.357z M631.252,114.358c15.199-15.2,28.6-34.799,28.6-49.599c0-4.4-1.199-9.2-4-11.8
		c-3.4,16-26,39-55.199,53.199v0.2c0,6.601,1.6,11.399,3.6,13.399c1.4,1.4,2.4,1.601,5.4,0.601c0.199,0.399,0.199,0.8-0.4,1.399
		c-1.799,2-9,2.201-13.6-2c-2.4-2-3.801-5.399-4.4-9.399c-13.6,5.399-28,8.8-42.398,8.8h-0.201c-5.199,8.2-8.398,16.2-8.398,23.6
		c0,14.8,8,18.2,16.199,18.2C570.053,160.958,602.252,143.357,631.252,114.358z M550.254,116.758
		c13.799-0.199,27.6-3.6,40.598-8.999v-1.601c0-11.399,7-23.199,20.602-36.799c8.199-8.2,25.398-20.8,38.398-20.8
		c1.199,0,2.4,0.2,3.4,0.4c0-4.6-2.201-6.4-5-6.4C635.652,42.56,574.652,81.159,550.254,116.758z M600.852,103.158
		c28.4-14.399,50.199-36.799,52.199-51.799c-0.6-0.2-1.398-0.4-2.199-0.4c-9,0-21.199,8.8-32.199,19.8
		C606.252,83.159,602.053,96.159,600.852,103.158z"/>
	<path fill="#990099" d="M685.852,110.959c0,8.799-8.6,22.799-18.6,32.799c-8.6,8.6-17.6,15-22.799,15
		c-4.201,0-7.801-4.6-7.801-11.6c0-15.8,23.199-44.199,40.199-44.6C684.053,105.358,685.852,108.158,685.852,110.959z
		 M682.852,110.959c0-1.801-0.4-2.801-1.199-3.601c-11.4,1.4-38,33.399-39,46.6c0.4,0.8,1,1.2,2,1.2c5,0,12.6-5.801,20.4-13.6
		C674.252,132.358,682.852,118.559,682.852,110.959z"/>
	<path fill="#990099" d="M755.848,126.559c0.4,0.199,0.602,0.6,0.602,1c0,4-28,31.199-38.199,31.199c-1.4,0-3-0.6-4.4-2
		c-2.201-2.199-3-5-3-8c0-12.6,32.199-37.399,29-42.999c0,0-1.4-0.4-2.201-0.4c-5.199,0-16.6,8.8-30.199,23
		c-9,9.399-18.199,20.399-26.199,30.6c-3.4,0-5.4-3.8-5.4-8c0-6.2,25.4-34.6,29.199-46.199c4.6,1.8,4.801,5,4.801,7.6
		c0,3.8-5,11.8-11.201,20.399l0.201,0.801c2.199-2.4,4.6-5,7.199-7.6c13.801-14.4,24.4-23,31.4-23c3.6,0,7.199,2.8,7.199,8
		c0,13.399-27,36.999-26.799,44.599C727.449,155.558,748.449,135.958,755.848,126.559z"/>
</g>
</svg>
